<svg width="18" height="18" viewBox="0 0 18 18" fill="none" xmlns="http://www.w3.org/2000/svg">
<path d="M13.1667 2.50001H16.5001C16.7211 2.50001 16.9331 2.58781 17.0893 2.74409C17.2456 2.90037 17.3334 3.11233 17.3334 3.33334V16.6667C17.3334 16.8877 17.2456 17.0997 17.0893 17.2559C16.9331 17.4122 16.7211 17.5 16.5001 17.5H1.50008C1.27907 17.5 1.06711 17.4122 0.910826 17.2559C0.754545 17.0997 0.666748 16.8877 0.666748 16.6667V3.33334C0.666748 3.11233 0.754545 2.90037 0.910826 2.74409C1.06711 2.58781 1.27907 2.50001 1.50008 2.50001H4.83341V0.833344H6.50008V2.50001H11.5001V0.833344H13.1667V2.50001ZM15.6667 9.16668H2.33341V15.8333H15.6667V9.16668ZM11.5001 4.16668H6.50008V5.83334H4.83341V4.16668H2.33341V7.50001H15.6667V4.16668H13.1667V5.83334H11.5001V4.16668ZM4.00008 10.8333H5.66675V12.5H4.00008V10.8333ZM8.16675 10.8333H9.83341V12.5H8.16675V10.8333ZM12.3334 10.8333H14.0001V12.5H12.3334V10.8333Z" fill="#7C7C7C"/>
</svg>
