<svg width="18" height="16" viewBox="0 0 18 16" fill="none" xmlns="http://www.w3.org/2000/svg">
<path d="M1.50008 0.5H16.5001C16.7211 0.5 16.9331 0.587797 17.0893 0.744078C17.2456 0.900358 17.3334 1.11232 17.3334 1.33333V14.6667C17.3334 14.8877 17.2456 15.0996 17.0893 15.2559C16.9331 15.4122 16.7211 15.5 16.5001 15.5H1.50008C1.27907 15.5 1.06711 15.4122 0.910826 15.2559C0.754545 15.0996 0.666748 14.8877 0.666748 14.6667V1.33333C0.666748 1.11232 0.754545 0.900358 0.910826 0.744078C1.06711 0.587797 1.27907 0.5 1.50008 0.5ZM2.33341 2.16667V13.8333H15.6667V2.16667H2.33341ZM13.0834 8.83333C12.8743 9.84279 12.2986 10.739 11.4674 11.3487C10.6362 11.9585 9.60849 12.2387 8.58282 12.1351C7.55715 12.0315 6.60625 11.5515 5.91379 10.7878C5.22133 10.0241 4.83642 9.03088 4.83341 8C4.83353 7.03954 5.16533 6.10859 5.7727 5.36455C6.38007 4.62052 7.22575 4.10907 8.16675 3.91667V8.83333H13.0834ZM13.0834 7.16667H9.83341V3.91667C10.6339 4.08058 11.3686 4.47595 11.9464 5.05372C12.5241 5.63148 12.9195 6.36619 13.0834 7.16667Z" fill="#7C7C7C"/>
</svg>
