<svg width="16" height="20" viewBox="0 0 16 20" fill="none" xmlns="http://www.w3.org/2000/svg">
<path d="M1.1525 2.355L8 0.833332L14.8475 2.355C15.0326 2.39614 15.198 2.49914 15.3167 2.647C15.4353 2.79487 15.5 2.97876 15.5 3.16833V11.4908C15.4999 12.3139 15.2967 13.1243 14.9082 13.85C14.5198 14.5757 13.9582 15.1943 13.2733 15.6508L8 19.1667L2.72667 15.6508C2.04189 15.1944 1.48038 14.5759 1.09196 13.8504C0.70353 13.1248 0.500197 12.3146 0.5 11.4917V3.16833C0.500033 2.97876 0.564698 2.79487 0.683325 2.647C0.801951 2.49914 0.967447 2.39614 1.1525 2.355ZM2.16667 3.83667V11.4908C2.16668 12.0395 2.30215 12.5798 2.56105 13.0636C2.81996 13.5474 3.19429 13.9598 3.65083 14.2642L8 17.1642L12.3492 14.2642C12.8056 13.9598 13.1799 13.5476 13.4388 13.0639C13.6977 12.5803 13.8332 12.0402 13.8333 11.4917V3.83667L8 2.54167L2.16667 3.83667Z" fill="#7C7C7C"/>
</svg>
