<svg width="18" height="18" viewBox="0 0 18 18" fill="none" xmlns="http://www.w3.org/2000/svg">
<path d="M1.78326 13.1667C1.43099 12.5575 1.15715 11.9062 0.968262 11.2283C1.37935 11.0193 1.72459 10.7005 1.96579 10.3074C2.20698 9.91431 2.33473 9.46214 2.33491 9.00093C2.33508 8.53973 2.20767 8.08746 1.96676 7.69417C1.72586 7.30088 1.38086 6.9819 0.969928 6.7725C1.34663 5.41041 2.06387 4.16663 3.05409 3.15834C3.44084 3.40978 3.88961 3.54931 4.35074 3.56149C4.81188 3.57367 5.26739 3.45803 5.66687 3.22737C6.06635 2.9967 6.39422 2.66 6.6142 2.25454C6.83418 1.84907 6.93768 1.39065 6.91326 0.930005C8.28169 0.576357 9.71762 0.57693 11.0858 0.931672C11.0616 1.39231 11.1653 1.85066 11.3854 2.25601C11.6056 2.66136 11.9336 2.9979 12.3331 3.22839C12.7327 3.45888 13.1882 3.57433 13.6493 3.56196C14.1104 3.5496 14.5591 3.40991 14.9458 3.15834C15.4283 3.65 15.8566 4.20917 16.2166 4.83334C16.5774 5.45751 16.8474 6.10834 17.0316 6.77167C16.6205 6.98076 16.2753 7.29948 16.0341 7.69259C15.7929 8.0857 15.6651 8.53787 15.665 8.99908C15.6648 9.46028 15.7922 9.91255 16.0331 10.3058C16.274 10.6991 16.619 11.0181 17.0299 11.2275C16.6532 12.5896 15.936 13.8334 14.9458 14.8417C14.559 14.5902 14.1102 14.4507 13.6491 14.4385C13.188 14.4263 12.7325 14.542 12.333 14.7726C11.9335 15.0033 11.6056 15.34 11.3857 15.7455C11.1657 16.1509 11.0622 16.6094 11.0866 17.07C9.71817 17.4237 8.28224 17.4231 6.91409 17.0683C6.9383 16.6077 6.83459 16.1493 6.61445 15.744C6.3943 15.3386 6.0663 15.0021 5.66674 14.7716C5.26718 14.5411 4.81164 14.4257 4.35053 14.438C3.88943 14.4504 3.44073 14.5901 3.05409 14.8417C2.56159 14.3391 2.13459 13.7763 1.78326 13.1667ZM6.49993 13.33C7.38795 13.8422 8.05563 14.6642 8.37493 15.6383C8.79076 15.6775 9.20826 15.6783 9.62409 15.6392C9.9436 14.6649 10.6116 13.8429 11.4999 13.3308C12.3876 12.8172 13.4337 12.6496 14.4374 12.86C14.6791 12.52 14.8874 12.1575 15.0608 11.7783C14.377 11.0145 13.9992 10.0252 13.9999 9C13.9999 7.95 14.3916 6.96917 15.0608 6.22167C14.8862 5.84263 14.677 5.48053 14.4358 5.14001C13.4327 5.35026 12.3873 5.1829 11.4999 4.67C10.6119 4.15781 9.94422 3.33582 9.62493 2.36167C9.2091 2.3225 8.79159 2.32167 8.37576 2.36084C8.05626 3.33513 7.38826 4.15714 6.49993 4.66917C5.61225 5.18277 4.56616 5.35044 3.56243 5.14001C3.32123 5.48024 3.11254 5.84239 2.9391 6.22167C3.6229 6.98547 4.00066 7.97483 3.99993 9C3.99993 10.05 3.60826 11.0308 2.9391 11.7783C3.11365 12.1574 3.32288 12.5195 3.5641 12.86C4.56719 12.6497 5.6126 12.8171 6.49993 13.33ZM8.99993 11.5C8.33689 11.5 7.701 11.2366 7.23216 10.7678C6.76332 10.2989 6.49993 9.66305 6.49993 9C6.49993 8.33696 6.76332 7.70108 7.23216 7.23224C7.701 6.7634 8.33689 6.50001 8.99993 6.50001C9.66297 6.50001 10.2989 6.7634 10.7677 7.23224C11.2365 7.70108 11.4999 8.33696 11.4999 9C11.4999 9.66305 11.2365 10.2989 10.7677 10.7678C10.2989 11.2366 9.66297 11.5 8.99993 11.5ZM8.99993 9.83334C9.22094 9.83334 9.4329 9.74554 9.58918 9.58926C9.74546 9.43298 9.83326 9.22102 9.83326 9C9.83326 8.77899 9.74546 8.56703 9.58918 8.41075C9.4329 8.25447 9.22094 8.16667 8.99993 8.16667C8.77891 8.16667 8.56695 8.25447 8.41067 8.41075C8.25439 8.56703 8.1666 8.77899 8.1666 9C8.1666 9.22102 8.25439 9.43298 8.41067 9.58926C8.56695 9.74554 8.77891 9.83334 8.99993 9.83334Z" fill="#7C7C7C"/>
</svg>
