<svg width="16" height="18" viewBox="0 0 16 18" fill="none" xmlns="http://www.w3.org/2000/svg">
<path d="M15.5 1.49334V16.5067C15.4983 16.7255 15.4105 16.9349 15.2557 17.0896C15.1008 17.2443 14.8914 17.3318 14.6725 17.3333H1.3275C1.10818 17.3333 0.897826 17.2463 0.742664 17.0913C0.587501 16.9363 0.500221 16.726 0.5 16.5067V1.49334C0.501746 1.27449 0.589515 1.06511 0.744348 0.910432C0.899181 0.755755 1.10865 0.668197 1.3275 0.666672H14.6725C15.1292 0.666672 15.5 1.03667 15.5 1.49334ZM13.8333 2.33334H2.16667V15.6667H13.8333V2.33334ZM7.41083 9.93417L10.9467 6.39917L12.125 7.57751L7.41083 12.2917L4.16917 9.05L5.34833 7.87167L7.41083 9.93417Z" fill="#7C7C7C"/>
</svg>
