<svg width="22" height="22" viewBox="0 0 22 22" fill="none" xmlns="http://www.w3.org/2000/svg">
<g clip-path="url(#clip0_106_321)">
<path d="M16.5286 15.2323L20.4547 19.1575L19.1576 20.4545L15.2324 16.5285C13.7719 17.6992 11.9553 18.336 10.0835 18.3334C5.5295 18.3334 1.8335 14.6374 1.8335 10.0834C1.8335 5.52937 5.5295 1.83337 10.0835 1.83337C14.6375 1.83337 18.3335 5.52937 18.3335 10.0834C18.3362 11.9552 17.6994 13.7718 16.5286 15.2323ZM14.6897 14.5521C15.8531 13.3558 16.5028 11.7521 16.5002 10.0834C16.5002 6.53771 13.6282 3.66671 10.0835 3.66671C6.53783 3.66671 3.66683 6.53771 3.66683 10.0834C3.66683 13.6281 6.53783 16.5 10.0835 16.5C11.7522 16.5027 13.3559 15.853 14.5522 14.6896L14.6897 14.5521Z" fill="#69768C"/>
</g>
<defs>
<clipPath id="clip0_106_321">
<rect width="22" height="22" fill="white"/>
</clipPath>
</defs>
</svg>
